<?xml version="1.0" encoding="utf-8"?>
<!-- Generator: Adobe Illustrator 17.0.0, SVG Export Plug-In . SVG Version: 6.00 Build 0)  -->
<!DOCTYPE svg PUBLIC "-//W3C//DTD SVG 1.1//EN" "http://www.w3.org/Graphics/SVG/1.1/DTD/svg11.dtd">
<svg version="1.1" id="Слой_1" xmlns="http://www.w3.org/2000/svg" xmlns:xlink="http://www.w3.org/1999/xlink" x="0px" y="0px"
	 width="778px" height="500px" viewBox="0 0 778 500" enable-background="new 0 0 778 500" xml:space="preserve">
<g>
	<g enable-background="new    ">
		<path fill="#1096E6" d="M277.631,347.961v46.807h-14.645v-35.703h-14.357v35.703H234.08v-46.807H277.631z"/>
		<path fill="#1096E6" d="M300.505,376.007c0.479,6.03,6.413,8.901,13.209,8.901c4.977,0,8.998-0.67,12.922-1.914l1.915,9.859
			c-4.786,1.914-10.625,2.871-16.942,2.871c-15.889,0-24.982-9.188-24.982-23.834c0-11.869,7.37-24.982,23.643-24.982
			c15.124,0,20.867,11.773,20.867,23.355c0,2.488-0.288,4.69-0.479,5.743H300.505z M317.638,366.052
			c0-3.541-1.531-9.476-8.232-9.476c-6.126,0-8.614,5.552-8.997,9.476H317.638z"/>
		<path fill="#1096E6" d="M339.843,363.659c0-6.126-0.191-11.391-0.383-15.698h12.635l0.67,6.509h0.191
			c3.446-4.977,8.806-7.562,15.602-7.562c10.242,0,19.431,8.902,19.431,23.834c0,17.038-10.816,25.078-21.25,25.078
			c-5.647,0-10.051-2.297-12.156-5.36h-0.191v23.26h-14.549V363.659z M354.392,374.667c0,1.148,0.096,2.201,0.287,3.063
			c0.957,3.925,4.307,6.892,8.519,6.892c6.317,0,10.05-5.265,10.05-13.209c0-7.466-3.35-13.113-9.859-13.113
			c-4.116,0-7.753,3.063-8.71,7.37c-0.191,0.766-0.287,1.724-0.287,2.585V374.667z"/>
		<path fill="#1096E6" d="M396.982,348.439c3.542-0.479,11.582-1.148,18.856-1.148c7.945,0,23.164,0.861,23.164,11.965
			c0,6.03-4.882,9.189-9.572,10.146v0.191c6.988,1.148,11.582,5.073,11.582,11.391c0,13.305-18.091,14.453-27.662,14.453
			c-6.509,0-13.4-0.479-16.368-0.861V348.439z M411.245,386.44c1.531,0.191,2.68,0.191,4.881,0.191c4.978,0,9.955-1.437,9.955-6.03
			c0-4.021-3.829-5.935-10.625-5.935h-4.211V386.44z M411.341,366.243h3.732c5.839,0,9.572-1.531,9.572-5.072
			c0-3.063-2.489-4.978-8.328-4.978c-2.01,0-3.35,0.191-4.977,0.383V366.243z"/>
		<path fill="#1096E6" d="M476.904,394.768l-0.862-4.69h-0.287c-3.063,3.733-7.849,5.743-13.4,5.743
			c-9.476,0-15.123-6.892-15.123-14.357c0-12.156,10.911-17.995,27.471-17.899v-0.67c0-2.489-1.34-6.03-8.519-6.03
			c-4.786,0-9.859,1.627-12.922,3.541l-2.681-9.38c3.255-1.818,9.668-4.116,18.187-4.116c15.603,0,20.58,9.189,20.58,20.196v16.272
			c0,4.499,0.191,8.807,0.67,11.391H476.904z M475.181,372.656c-7.657-0.096-13.592,1.724-13.592,7.371
			c0,3.732,2.488,5.551,5.743,5.551c3.638,0,6.604-2.393,7.562-5.359c0.191-0.766,0.287-1.628,0.287-2.489V372.656z"/>
		<path fill="#1096E6" d="M542.755,394.768h-14.357v-17.612h-2.967c-3.063,0-5.265,1.436-6.7,3.351
			c-2.489,2.393-3.638,6.796-5.073,10.433c-0.574,1.341-1.053,2.298-1.819,3.829h-15.506c1.148-1.436,2.01-3.255,2.871-5.169
			c1.532-3.732,3.638-9.763,6.604-12.922c1.532-1.627,3.446-2.871,5.935-3.446v-0.287c-5.264-0.574-12.061-4.115-12.061-11.581
			c0-5.839,3.255-9.189,7.945-11.391c4.307-2.106,10.815-2.776,17.229-2.776c7.274,0,13.783,0.479,17.898,1.053V394.768z
			 M528.397,356.576c-1.244-0.191-2.68-0.383-4.978-0.383c-4.689,0-8.71,1.818-8.71,6.03c0,4.115,4.595,6.126,8.901,6.126
			c2.298,0,3.542-0.096,4.786-0.096V356.576z"/>
	</g>
	<g>
		<g enable-background="new    ">
			<path fill="#1096E6" d="M5.094,430.091h18.569l5.073,17.708c0.766,2.776,2.106,7.562,3.063,11.773h0.287
				c0.862-3.254,2.393-8.327,3.733-12.826l5.169-16.655h18.378l2.872,46.807H48.742l-0.766-18.761
				c-0.096-4.021-0.383-10.816-0.479-16.368H47.21c-1.818,6.222-2.105,7.754-4.499,15.315l-6.222,19.048H25.865l-5.552-18.569
				c-1.244-4.499-2.776-11.104-3.829-15.507h-0.383c-0.191,5.839-0.287,12.443-0.479,16.368l-0.766,18.474H1.84L5.094,430.091z"/>
			<path fill="#1096E6" d="M82.144,430.091l6.988,22.973c0.766,2.776,1.723,6.222,2.297,8.711h0.288
				c0.67-2.489,1.436-6.03,2.105-8.711l5.743-22.973h15.602l-10.912,30.821c-6.701,18.569-11.199,26.036-16.464,30.726
				c-5.073,4.403-10.433,5.935-14.07,6.413l-3.063-12.348c1.818-0.287,4.116-1.148,6.317-2.488c2.201-1.148,4.594-3.446,6.03-5.839
				c0.479-0.67,0.766-1.436,0.766-2.105c0-0.479-0.096-1.244-0.67-2.394l-17.134-42.786H82.144z"/>
			<path fill="#1096E6" d="M133.063,430.091l10.529,18.761h1.531v-18.761h14.071v18.761h1.436l10.625-18.761h16.081l-16.272,20.197
				c5.264,0.957,8.902,6.126,10.912,11.869c1.915,5.264,3.446,10.433,5.552,14.74h-14.549c-1.34-2.297-2.489-6.03-4.02-10.721
				c-1.819-5.169-4.786-7.944-8.615-7.944h-1.148v18.665h-14.071v-18.665h-1.148c-4.212,0-6.892,2.68-8.806,7.944
				c-1.723,4.882-2.776,8.328-4.116,10.721h-14.358c2.202-4.403,3.829-9.477,5.743-14.645c2.106-5.935,5.552-11.008,10.816-11.965
				l-16.272-20.197H133.063z"/>
			<path fill="#1096E6" d="M227.727,475.749c-2.584,1.148-7.466,2.105-13.018,2.105c-15.124,0-24.791-9.188-24.791-23.93
				c0-13.688,9.38-24.887,26.801-24.887c3.829,0,8.04,0.67,11.103,1.818l-2.297,10.816c-1.723-0.766-4.308-1.436-8.136-1.436
				c-7.657,0-12.635,5.456-12.539,13.113c0,8.615,5.743,13.113,12.826,13.113c3.446,0,6.126-0.574,8.328-1.436L227.727,475.749z"/>
			<path fill="#1096E6" d="M250.218,430.091v18.665h1.627l11.773-18.665h17.038l-17.229,20.102
				c5.552,1.053,8.998,6.126,11.773,12.922c1.531,3.924,3.35,9.38,5.647,13.783h-15.219c-1.245-2.01-2.393-5.36-4.212-10.338
				c-2.105-5.36-4.977-8.231-9.763-8.231h-1.436v18.569h-14.454v-46.807H250.218z"/>
			<path fill="#1096E6" d="M314.059,476.897l-0.862-4.69h-0.287c-3.063,3.733-7.849,5.743-13.4,5.743
				c-9.476,0-15.124-6.892-15.124-14.357c0-12.156,10.912-17.995,27.471-17.899v-0.67c0-2.489-1.34-6.03-8.519-6.03
				c-4.786,0-9.859,1.627-12.922,3.541l-2.68-9.38c3.254-1.818,9.667-4.116,18.187-4.116c15.602,0,20.58,9.189,20.58,20.196v16.272
				c0,4.499,0.191,8.807,0.67,11.391H314.059z M312.336,454.786c-7.657-0.096-13.592,1.724-13.592,7.371
				c0,3.732,2.488,5.551,5.743,5.551c3.638,0,6.605-2.393,7.562-5.359c0.191-0.766,0.287-1.628,0.287-2.489V454.786z"/>
			<path fill="#1096E6" d="M379.91,476.897h-14.357v-17.612h-2.967c-3.063,0-5.265,1.436-6.7,3.351
				c-2.489,2.393-3.638,6.796-5.073,10.433c-0.574,1.341-1.053,2.298-1.819,3.829h-15.506c1.149-1.436,2.01-3.255,2.872-5.169
				c1.532-3.732,3.637-9.763,6.604-12.922c1.532-1.627,3.446-2.871,5.935-3.446v-0.287c-5.264-0.574-12.061-4.115-12.061-11.581
				c0-5.839,3.254-9.189,7.945-11.391c4.307-2.106,10.816-2.776,17.229-2.776c7.274,0,13.783,0.479,17.899,1.053V476.897z
				 M365.553,438.706c-1.245-0.191-2.68-0.383-4.978-0.383c-4.69,0-8.71,1.818-8.71,6.03c0,4.115,4.595,6.126,8.902,6.126
				c2.297,0,3.542-0.096,4.786-0.096V438.706z"/>
			<path fill="#1096E6" d="M425.275,430.091v18.665h1.628l11.773-18.665h17.037l-17.229,20.102
				c5.552,1.053,8.998,6.126,11.773,12.922c1.532,3.924,3.351,9.38,5.647,13.783h-15.219c-1.244-2.01-2.394-5.36-4.212-10.338
				c-2.105-5.36-4.978-8.231-9.763-8.231h-1.437v18.569h-14.453v-46.807H425.275z"/>
			<path fill="#1096E6" d="M504.336,430.091v46.807h-14.55v-35.703h-10.146v8.615c0,11.39-1.341,19.335-6.605,23.546
				c-2.967,3.159-7.083,4.499-13.592,4.499l-1.531-11.199c2.105-0.383,4.116-1.244,5.169-2.584c2.68-2.681,3.063-7.083,3.063-15.028
				v-18.952H504.336z"/>
			<path fill="#1096E6" d="M529.602,430.091v14.358c0,7.466-0.383,12.73-0.766,19.048l0.383,0.096c2.201-5.36,3.446-8.998,5.36-13.4
				l9.093-20.102h17.804v46.807h-13.783v-14.262c0-7.275,0.383-10.338,0.861-20.293h-0.383c-1.818,5.169-2.967,8.232-4.882,12.635
				c-2.967,6.509-6.509,14.646-9.763,21.92h-17.708v-46.807H529.602z"/>
			<path fill="#1096E6" d="M587.508,430.091v16.942h14.741v-16.942h14.645v46.807h-14.645v-18.569h-14.741v18.569h-14.549v-46.807
				H587.508z"/>
			<path fill="#1096E6" d="M642.16,430.091v14.358c0,7.466-0.383,12.73-0.766,19.048l0.383,0.096c2.201-5.36,3.446-8.998,5.36-13.4
				l9.093-20.102h17.804v46.807h-13.783v-14.262c0-7.275,0.383-10.338,0.861-20.293h-0.383c-1.818,5.169-2.967,8.232-4.882,12.635
				c-2.967,6.509-6.509,14.646-9.763,21.92h-17.708v-46.807H642.16z"/>
			<path fill="#1096E6" d="M700.065,430.091v18.665h1.628l11.772-18.665h17.038l-17.229,20.102
				c5.552,1.053,8.998,6.126,11.773,12.922c1.532,3.924,3.351,9.38,5.647,13.783h-15.219c-1.244-2.01-2.394-5.36-4.212-10.338
				c-2.105-5.36-4.978-8.231-9.763-8.231h-1.437v18.569h-14.453v-46.807H700.065z"/>
			<path fill="#1096E6" d="M763.906,476.897l-0.861-4.69h-0.287c-3.063,3.733-7.849,5.743-13.4,5.743
				c-9.477,0-15.124-6.892-15.124-14.357c0-12.156,10.912-17.995,27.472-17.899v-0.67c0-2.489-1.34-6.03-8.519-6.03
				c-4.786,0-9.859,1.627-12.923,3.541l-2.68-9.38c3.255-1.818,9.668-4.116,18.187-4.116c15.603,0,20.579,9.189,20.579,20.196
				v16.272c0,4.499,0.191,8.807,0.67,11.391H763.906z M762.184,454.786c-7.657-0.096-13.592,1.724-13.592,7.371
				c0,3.732,2.488,5.551,5.743,5.551c3.637,0,6.604-2.393,7.562-5.359c0.191-0.766,0.287-1.628,0.287-2.489V454.786z"/>
		</g>
	</g>
</g>
<g>
	<path fill="#1096E6" d="M233.71,1v305.525h306.367V1H233.71z M522.606,289.102H251.18V18.423h271.425v270.679H522.606z"/>
	<polygon fill="#1096E6" points="471.141,225.592 483.77,78.355 423.15,78.355 393.365,163.813 379.473,78.355 359.477,78.355 
		354.706,130.486 364.739,196.334 369.028,225.592 404.451,225.592 439.813,121.435 431.516,225.592 	"/>
	<path fill="#1096E6" d="M307.696,225.381l8.314-100.614h-33.362l1.684-16.839c0,0,18.418-0.526,29.258-9.367
		s13.05-20.207,13.05-20.207h33.678l-12.945,147.027L307.696,225.381L307.696,225.381z"/>
</g>
</svg>
